<svg width="36" height="30" viewBox="0 0 36 30" fill="none" xmlns="http://www.w3.org/2000/svg">
<path d="M35.9219 15C35.9219 16.4062 34.8281 17.5 33.5 17.5H9.51562L17.7188 25.7812C18.7344 26.7188 18.7344 28.3594 17.7188 29.2969C17.25 29.7656 16.625 30 16 30C15.2969 30 14.6719 29.7656 14.2031 29.2969L1.70312 16.7969C0.6875 15.8594 0.6875 14.2188 1.70312 13.2812L14.2031 0.78125C15.1406 -0.234375 16.7812 -0.234375 17.7188 0.78125C18.7344 1.71875 18.7344 3.35938 17.7188 4.29688L9.51562 12.5H33.5C34.8281 12.5 35.9219 13.6719 35.9219 15Z" fill="white"/>
</svg>
