<svg width="32" height="32" viewBox="0 0 32 32" fill="none" xmlns="http://www.w3.org/2000/svg">
<path d="M22.5768 9.04458H9.75065C8.88735 9.04458 8.27071 9.72694 8.27071 10.5334C8.27071 11.4018 8.88735 12.0221 9.75065 12.0221H22.5768C23.3784 12.0221 24.0567 11.4018 24.0567 10.5334C24.0567 9.72694 23.3784 9.04458 22.5768 9.04458ZM16.657 14.9997H9.75065C8.88735 14.9997 8.27071 15.682 8.27071 16.4884C8.27071 17.3569 8.88735 17.9772 9.75065 17.9772H16.657C17.4587 17.9772 18.137 17.3569 18.137 16.4884C18.137 15.682 17.4587 14.9997 16.657 14.9997ZM27.9416 0.111938H4.26254C2.04263 0.111938 0.31604 1.91087 0.31604 4.082V21.8853C0.31604 24.0564 2.04263 25.7933 4.26254 25.7933H10.1823V30.942C10.1823 31.5623 10.8606 31.8724 11.3539 31.5623L19.0619 25.7313H27.9416C30.0998 25.7313 31.8881 23.9323 31.8881 21.8232V4.082C31.8881 1.91087 30.1615 0.111938 27.9416 0.111938ZM28.9898 21.9473C28.9898 22.5056 28.4965 22.9398 28.0032 22.9398H18.137L13.2038 26.6617V22.9398H4.32421C3.76923 22.9398 3.33758 22.5056 3.33758 21.9473V4.082C3.33758 3.58574 3.76923 3.08949 4.32421 3.08949H28.0032C28.4965 3.08949 28.9898 3.58574 28.9898 4.082V21.9473Z" fill="white"/>
</svg>
