<svg width="40" height="40" viewBox="0 0 40 40" fill="none" xmlns="http://www.w3.org/2000/svg">
<path d="M30.0781 22.5C31.1719 22.5 32.0312 23.5156 31.7969 24.5312C30.3906 29.8438 25.625 33.75 20 33.75C14.2969 33.75 9.53125 29.8438 8.125 24.5312C7.89062 23.5156 8.75 22.5 9.84375 22.5H30.0781ZM28.9844 25H10.9375C12.3438 28.75 15.9375 31.25 20 31.25C24.0625 31.25 27.5781 28.75 28.9844 25ZM15.625 15C15.625 16.0938 14.7656 16.875 13.75 16.875C12.7344 16.875 11.875 16.0938 11.875 15C11.875 13.9844 12.7344 13.125 13.75 13.125C14.7656 13.125 15.625 13.9844 15.625 15ZM24.375 15C24.375 13.9844 25.2344 13.125 26.25 13.125C27.2656 13.125 28.125 13.9844 28.125 15C28.125 16.0938 27.2656 16.875 26.25 16.875C25.2344 16.875 24.375 16.0938 24.375 15ZM40 20C40 31.0938 31.0156 40 20 40C8.90625 40 0 31.0938 0 20C0 8.98438 8.90625 0 20 0C31.0156 0 40 8.98438 40 20ZM20 2.5C10.3125 2.5 2.5 10.3906 2.5 20C2.5 29.6875 10.3125 37.5 20 37.5C29.6094 37.5 37.5 29.6875 37.5 20C37.5 10.3906 29.6094 2.5 20 2.5Z" fill="#8496A2"/>
</svg>
