<svg width="33" height="38" viewBox="0 0 33 38" fill="none" xmlns="http://www.w3.org/2000/svg">
<path d="M4.42969 4.3125C6.69531 2.04688 10.3672 2.04688 12.6328 4.3125L27.6328 19.3125C31.3047 22.9844 31.3047 28.8438 27.6328 32.5156C23.9609 36.1875 18.1016 36.1875 14.4297 32.5156L2.55469 20.6406C2.08594 20.1719 1.22656 20.1719 0.757812 20.6406C0.289062 21.1094 0.289062 21.9688 0.757812 22.4375L12.6328 34.3125C17.2422 38.9219 24.8203 38.9219 29.4297 34.3125C34.0391 29.625 34.0391 22.125 29.4297 17.5156L14.4297 2.51562C11.1484 -0.6875 5.91406 -0.6875 2.63281 2.51562C-0.570312 5.79688 -0.570312 11.0312 2.63281 14.3125L17.0078 28.6875C19.1953 30.875 22.8672 30.6406 24.8203 28.2188C26.4609 26.1094 26.3047 23.1406 24.4297 21.2656L12.5547 9.39062C12.0859 8.92188 11.2266 8.92188 10.7578 9.39062C10.2891 9.85938 10.2891 10.7188 10.7578 11.1875L22.6328 23.0625C23.6484 24 23.7266 25.5625 22.8672 26.6562C21.8516 27.9062 19.8984 28.0625 18.8047 26.8906L4.42969 12.5156C2.16406 10.25 2.16406 6.57812 4.42969 4.3125Z" fill="#8496A2"/>
</svg>
