<svg width="40" height="41" viewBox="0 0 40 41" fill="none" xmlns="http://www.w3.org/2000/svg">
<path d="M39.9219 30.2344L38.0469 38.125C37.8125 39.2969 36.875 40.0781 35.7031 40.0781C16.0156 40 0 23.9844 0 4.29688C0 3.12501 0.703125 2.18751 1.875 1.95313L9.76562 0.0781313C10.8594 -0.156244 12.0312 0.468756 12.5 1.48438L16.1719 10C16.5625 11.0156 16.3281 12.1875 15.4688 12.8125L11.25 16.25C13.9062 21.6406 18.2812 26.0156 23.75 28.6719L27.1875 24.4531C27.8125 23.6719 28.9844 23.3594 30 23.75L38.5156 27.4219C39.5312 27.9688 40.1562 29.1406 39.9219 30.2344Z" fill="white"/>
</svg>
