<svg width="10" height="34" viewBox="0 0 10 34" fill="none" xmlns="http://www.w3.org/2000/svg">
<path d="M5 25.125C7.34375 25.125 9.375 27.1562 9.375 29.5C9.375 31.9219 7.34375 33.875 5 33.875C2.57812 33.875 0.625 31.9219 0.625 29.5C0.625 27.1562 2.57812 25.125 5 25.125ZM5 12.625C7.34375 12.625 9.375 14.6562 9.375 17C9.375 19.4219 7.34375 21.375 5 21.375C2.57812 21.375 0.625 19.4219 0.625 17C0.625 14.6562 2.57812 12.625 5 12.625ZM5 8.875C2.57812 8.875 0.625 6.92188 0.625 4.5C0.625 2.15625 2.57812 0.125 5 0.125C7.34375 0.125 9.375 2.15625 9.375 4.5C9.375 6.92188 7.34375 8.875 5 8.875Z" fill="white"/>
</svg>
