<svg width="15" height="13" viewBox="0 0 15 13" fill="none" xmlns="http://www.w3.org/2000/svg">
<path d="M7.47656 8C6.14062 8 5.03906 6.92188 5.0625 5.5625C5.0625 4.22656 6.14062 3.125 7.47656 3.125C8.8125 3.125 9.91406 4.22656 9.91406 5.5625C9.91406 6.92188 8.83594 8 7.47656 8ZM7.47656 4.25C6.77344 4.25 6.16406 4.85938 6.16406 5.5625C6.16406 6.28906 6.77344 6.875 7.47656 6.875C8.20312 6.875 8.78906 6.28906 8.78906 5.5625C8.78906 4.85938 8.20312 4.25 7.47656 4.25ZM12 4.25C10.9453 4.25 10.125 3.42969 10.125 2.375C10.125 1.34375 10.9453 0.5 12 0.5C13.0312 0.5 13.875 1.34375 13.875 2.375C13.875 3.42969 13.0312 4.25 12 4.25ZM8.64844 8.75C10.5 8.75 12 10.1562 12 11.8906C12 12.2422 11.6953 12.5 11.3203 12.5H3.65625C3.28125 12.5 3 12.2422 3 11.8906C3 10.1562 4.47656 8.75 6.32812 8.75H8.64844ZM4.17188 11.375H10.8047C10.5469 10.5312 9.67969 9.875 8.64844 9.875H6.30469C5.27344 9.875 4.40625 10.5312 4.17188 11.375ZM12.9141 5C14.0625 5 15 5.98438 15 7.20312C15 7.4375 14.8125 7.625 14.5781 7.625H9.89062C10.3828 7.08594 10.6641 6.35938 10.6641 5.5625C10.6641 5.44531 10.6406 5.32812 10.6406 5.21094C10.8984 5.09375 11.1797 5 11.4844 5H12.9141ZM4.28906 5.5625C4.28906 6.35938 4.59375 7.08594 5.08594 7.625H0.398438C0.164062 7.625 0 7.4375 0 7.20312C0 5.98438 0.914062 5 2.0625 5H3.49219C3.79688 5 4.07812 5.07031 4.33594 5.21094C4.3125 5.32812 4.28906 5.44531 4.28906 5.5625ZM3 4.25C1.94531 4.25 1.125 3.42969 1.125 2.375C1.125 1.34375 1.94531 0.5 3 0.5C4.03125 0.5 4.875 1.34375 4.875 2.375C4.875 3.42969 4.03125 4.25 3 4.25Z" fill="white"/>
</svg>
