<svg width="8" height="9" viewBox="0 0 8 9" fill="none" xmlns="http://www.w3.org/2000/svg">
<path d="M7.5625 7.28906C7.77344 7.52344 7.77344 7.875 7.5625 8.08594C7.32812 8.32031 6.97656 8.32031 6.76562 8.08594L4 5.29688L1.21094 8.08594C0.976562 8.32031 0.625 8.32031 0.414062 8.08594C0.179688 7.875 0.179688 7.52344 0.414062 7.28906L3.20312 4.5L0.414062 1.71094C0.179688 1.47656 0.179688 1.125 0.414062 0.914062C0.625 0.679688 0.976562 0.679688 1.1875 0.914062L4 3.72656L6.78906 0.9375C7 0.703125 7.35156 0.703125 7.5625 0.9375C7.79688 1.14844 7.79688 1.5 7.5625 1.73438L4.77344 4.5L7.5625 7.28906Z" fill="#003082"/>
</svg>
